<svg 
 xmlns="http://www.w3.org/2000/svg"
 xmlns:xlink="http://www.w3.org/1999/xlink"
 width="0.333in" height="0.333in">
<path fill-rule="evenodd"  fill="rgb(25,158,217)"
 d="M12.000,23.997 C5.373,23.997 0.002,18.626 0.002,12.000 C0.002,5.374 5.373,0.002 12.000,0.002 C18.626,0.002 23.997,5.374 23.997,12.000 C23.997,18.626 18.626,23.997 12.000,23.997 ZM12.000,1.092 C5.976,1.092 1.092,5.976 1.092,12.000 C1.092,18.023 5.976,22.907 12.000,22.907 C18.024,22.907 22.907,18.023 22.907,12.000 C22.907,5.976 18.024,1.092 12.000,1.092 ZM12.460,8.554 L12.460,9.705 L15.106,9.705 L14.745,12.000 L12.460,12.000 L12.460,18.925 L10.185,18.925 L10.185,12.000 L8.778,12.000 L8.778,9.704 L10.185,9.704 L10.185,8.315 C10.185,6.444 10.744,5.093 12.795,5.093 L15.234,5.093 L15.234,7.384 L13.516,7.384 C12.656,7.384 12.460,7.955 12.460,8.554 Z"/>
</svg>