<svg 
 xmlns="http://www.w3.org/2000/svg"
 xmlns:xlink="http://www.w3.org/1999/xlink"
 width="0.333in" height="0.333in">
<path fill-rule="evenodd"  fill="rgb(25,158,217)"
 d="M12.000,23.997 C5.373,23.997 0.002,18.626 0.002,12.000 C0.002,5.374 5.373,0.002 12.000,0.002 C18.626,0.002 23.997,5.374 23.997,12.000 C23.997,18.626 18.626,23.997 12.000,23.997 ZM12.000,1.092 C5.976,1.092 1.092,5.976 1.092,12.000 C1.092,18.023 5.976,22.907 12.000,22.907 C18.024,22.907 22.907,18.023 22.907,12.000 C22.907,5.976 18.024,1.092 12.000,1.092 ZM16.614,14.307 L15.692,14.307 L15.692,12.461 L13.845,12.461 L13.845,11.538 L15.692,11.538 L15.692,9.693 L16.614,9.693 L16.614,11.538 L18.460,11.538 L18.460,12.461 L16.614,12.461 L16.614,14.307 ZM11.902,6.615 C12.293,6.939 13.112,7.621 13.112,8.917 C13.112,10.179 12.396,10.776 11.680,11.339 C11.459,11.560 11.202,11.799 11.202,12.174 C11.202,12.549 11.458,12.754 11.645,12.907 L12.259,13.385 C13.010,14.016 13.691,14.597 13.691,15.774 C13.691,17.376 12.139,18.997 9.207,18.997 C6.735,18.997 5.540,17.820 5.540,16.558 C5.540,15.944 5.847,15.073 6.854,14.477 C7.911,13.829 9.344,13.744 10.111,13.692 C9.872,13.386 9.599,13.061 9.599,12.533 C9.599,12.243 9.684,12.073 9.769,11.868 C9.580,11.884 9.394,11.902 9.223,11.902 C7.415,11.902 6.392,10.553 6.392,9.224 C6.392,8.439 6.750,7.569 7.483,6.939 C8.456,6.137 9.615,6.001 10.536,6.001 L14.049,6.001 L12.959,6.615 L11.902,6.615 ZM8.507,14.444 C8.132,14.580 7.040,14.989 7.040,16.200 C7.040,17.411 8.217,18.280 10.042,18.280 C11.679,18.280 12.548,17.496 12.548,16.439 C12.548,15.569 11.987,15.108 10.690,14.188 C10.553,14.170 10.468,14.170 10.298,14.170 C10.144,14.170 9.224,14.205 8.507,14.444 ZM9.462,6.564 C9.018,6.564 8.540,6.786 8.267,7.127 C7.977,7.486 7.892,7.945 7.892,8.389 C7.892,9.532 8.557,11.425 10.024,11.425 C10.451,11.424 10.911,11.220 11.184,10.947 C11.576,10.555 11.610,10.009 11.610,9.701 C11.610,8.475 10.877,6.564 9.462,6.564 Z"/>
</svg>