<svg 
 xmlns="http://www.w3.org/2000/svg"
 xmlns:xlink="http://www.w3.org/1999/xlink"
 width="0.333in" height="0.333in">
<path fill-rule="evenodd"  fill="rgb(25,158,217)"
 d="M12.000,23.997 C5.373,23.997 0.002,18.626 0.002,12.000 C0.002,5.374 5.373,0.002 12.000,0.002 C18.626,0.002 23.997,5.374 23.997,12.000 C23.997,18.626 18.626,23.997 12.000,23.997 ZM12.000,1.092 C5.976,1.092 1.093,5.976 1.093,12.000 C1.093,18.023 5.976,22.907 12.000,22.907 C18.024,22.907 22.907,18.023 22.907,12.000 C22.907,5.976 18.024,1.092 12.000,1.092 ZM17.137,9.254 C17.143,9.373 17.144,9.493 17.144,9.614 C17.144,13.296 14.479,17.538 9.604,17.537 C8.107,17.537 6.714,17.068 5.541,16.263 C5.748,16.290 5.959,16.304 6.173,16.304 C7.414,16.307 8.557,15.857 9.465,15.105 C8.306,15.078 7.326,14.256 6.989,13.132 C7.150,13.166 7.316,13.185 7.487,13.186 C7.728,13.188 7.963,13.155 8.185,13.091 C6.973,12.823 6.058,11.673 6.058,10.302 C6.058,10.290 6.058,10.278 6.058,10.266 C6.416,10.481 6.824,10.613 7.259,10.633 C6.548,10.118 6.080,9.245 6.080,8.264 C6.080,7.745 6.211,7.261 6.439,6.846 C7.746,8.576 9.699,9.723 11.904,9.865 C11.858,9.659 11.835,9.445 11.835,9.225 C11.835,7.675 13.022,6.438 14.486,6.462 C15.248,6.475 15.937,6.825 16.420,7.375 C17.024,7.259 17.591,7.037 18.103,6.726 C17.905,7.373 17.485,7.912 16.937,8.249 C17.474,8.189 17.984,8.046 18.460,7.832 C18.104,8.385 17.655,8.868 17.137,9.254 Z"/>
</svg>